:FULLY-SPECIFIED
:FORCE-ALL-JOINTS-BE-3DOF
:DEGREES
113
root 5.09048 17.4039 1.4093 4.08513 1.91072 5.27296
lfemur 18.3035 -2.57127 -30.591
ltibia 18.446 0 0
lfoot 9.60515 1.95016 -0.185596
ltoes -5.84325 0 0
rfemur -36.1831 9.36435 10.6831
rtibia 26.3855 0 0
rfoot -8.71203 -11.1379 -0.364485
rtoes -15.696 0 0
lowerback 1.85073 -3.65653 -4.64619
upperback -0.477474 -5.03443 1.07774
thorax -1.06063 -2.42769 4.04498
lowerneck -13.2951 -0.833824 -7.05751
upperneck 6.96322 -0.27227 4.38156
head 4.81134 -0.195578 2.28713
lclavicle 1.00821e-14 -1.98785e-16 4.08988e-31
lhumerus -27.094 -26.37 91.9271
lradius 80.082 0 0
lwrist 17.4986 0 0
lhand -25.4385 -11.9488 -1.40799
lfingers 7.12502 0 0
lthumb 1.0865 17.7211 -1.36492
rclavicle 1.00821e-14 -1.98785e-16 4.08988e-31
rhumerus -52.1981 7.84707 -83.5555
rradius 59.2264 0 0
rwrist -10.8373 0 0
rhand -37.0956 6.28465 -1.95832
rfingers 7.12502 0 0
rthumb -10.1614 -23.3287 -1.91077
114
root 5.08849 17.372 1.73965 4.08277 1.84111 5.13327
lfemur 17.4009 -2.0239 -30.2874
ltibia 21.486 0 0
lfoot 9.56035 1.83772 -0.182025
ltoes -5.76029 0 0
rfemur -35.7057 9.52882 10.9188
rtibia 25.2646 0 0
rfoot -8.74277 -12.0435 -0.42126
rtoes -16.3994 0 0
lowerback 1.71782 -3.58721 -4.64577
upperback -0.358794 -4.92304 1.21222
thorax -0.856251 -2.38597 4.12727
lowerneck -13.1305 -0.833332 -7.20504
upperneck 6.65405 -0.253449 4.43381
head 4.69492 -0.191688 2.32346
lclavicle 4.21424e-14 -9.1441e-15 1.44831e-31
lhumerus -27.8301 -26.3624 92.3862
lradius 79.5521 0 0
lwrist 17.6716 0 0
lhand -25.0802 -11.1456 -1.51883
lfingers 7.12502 0 0
lthumb 1.432 18.509 -1.47412
rclavicle 4.21424e-14 -9.1441e-15 1.44831e-31
rhumerus -51.5635 7.92756 -83.4654
rradius 59.3518 0 0
rwrist -11.0488 0 0
rhand -36.8694 6.71735 -2.0219
rfingers 7.12502 0 0
rthumb -9.94284 -22.899 -1.97309
115
root 5.08549 17.3244 2.07555 3.95598 1.6914 4.95982
lfemur 16.6273 -1.29406 -29.8623
ltibia 24.4741 0 0
lfoot 9.5654 1.7424 -0.144883
ltoes -6.15242 0 0
rfemur -35.0167 9.4105 11.3929
rtibia 24.3255 0 0
rfoot -8.61719 -11.7854 -0.304796
rtoes -17.3925 0 0
lowerback 1.84502 -3.47222 -4.49866
upperback -0.325708 -4.77081 1.25122
thorax -0.911607 -2.31048 4.04817
lowerneck -12.9083 -0.888769 -7.16416
upperneck 6.48365 -0.348924 4.38614
head 4.60424 -0.234904 2.2888
lclavicle -3.90177e-14 3.97569e-15 3.45828e-31
lhumerus -28.9254 -26.4071 92.8655
lradius 79.0473 0 0
lwrist 18.1107 0 0
lhand -24.832 -10.3109 -1.59378
lfingers 7.12502 0 0
lthumb 1.67125 19.3376 -1.54795
rclavicle -3.90177e-14 3.97569e-15 3.45828e-31
rhumerus -50.9589 7.80981 -83.4251
rradius 59.4177 0 0
rwrist -11.2742 0 0
rhand -36.5937 6.98945 -1.96792
rfingers 7.12502 0 0
rthumb -9.67712 -22.6437 -1.91981
116
root 5.07855 17.2642 2.40855 3.82307 1.30315 4.64362
lfemur 15.8597 -0.299699 -29.1974
ltibia 27.4047 0 0
lfoot 9.36935 1.85235 -0.0482427
ltoes -5.28619 0 0
rfemur -34.3798 9.18061 12.1908
rtibia 23.8522 0 0
rfoot -8.28554 -11.0542 -0.144339
rtoes -17.3474 0 0
lowerback 1.94221 -3.26558 -4.22064
upperback -0.243921 -4.48825 1.28014
thorax -0.922671 -2.17437 3.87643
lowerneck -12.9528 -0.926742 -7.09717
upperneck 6.5692 -0.419806 4.42292
head 4.63995 -0.258917 2.29754
lclavicle 2.801e-14 3.97569e-15 4.48072e-31
lhumerus -30.0075 -26.3964 93.3232
lradius 78.4065 0 0
lwrist 18.3367 0 0
lhand -24.9519 -10.089 -1.63218
lfingers 7.12502 0 0
lthumb 1.5556 19.559 -1.58438
rclavicle 2.801e-14 3.97569e-15 4.48072e-31
rhumerus -50.2936 7.72219 -83.4991
rradius 59.6286 0 0
rwrist -11.5199 0 0
rhand -36.482 6.8799 -1.87381
rfingers 7.12502 0 0
rthumb -9.56989 -22.768 -1.82718
117
root 5.07075 17.2003 2.74015 3.62407 1.11034 4.18081
lfemur 15.2149 0.589168 -28.2144
ltibia 30.307 0 0
lfoot 8.8561 1.92593 0.0438905
ltoes -4.52156 0 0
rfemur -33.6762 8.79914 13.1846
rtibia 23.9001 0 0
rfoot -7.98148 -9.65996 0.0992016
rtoes -12.6379 0 0
lowerback 2.14961 -3.0696 -3.80196
upperback -0.124102 -4.21357 1.38039
thorax -0.956494 -2.0457 3.72094
lowerneck -13.0685 -0.957939 -7.17881
upperneck 6.6711 -0.45539 4.5738
head 4.69261 -0.270119 2.37404
lclavicle -3.27249e-14 6.55987e-15 1.48878e-30
lhumerus -30.8794 -26.2925 93.8145
lradius 77.5673 0 0
lwrist 18.3542 0 0
lhand -25.0702 -9.93391 -1.66725
lfingers 7.12502 0 0
lthumb 1.4416 19.7117 -1.61763
rclavicle -3.27249e-14 6.55987e-15 1.48878e-30
rhumerus -49.6114 7.71316 -83.4932
rradius 59.9469 0 0
rwrist -11.681 0 0
rhand -36.6669 7.2278 -1.92269
rfingers 7.12502 0 0
rthumb -9.74787 -22.4051 -1.87573
118
root 5.06168 17.1418 3.07885 3.3071 1.12818 3.80358
lfemur 14.6907 1.38086 -27.0982
ltibia 33.1691 0 0
lfoot 8.35065 1.77526 0.0928287
ltoes -4.84221 0 0
rfemur -32.869 8.35466 14.0464
rtibia 24.4268 0 0
rfoot -8.75491 -7.76093 0.429981
rtoes -10.0813 0 0
lowerback 2.59076 -2.94713 -3.48462
upperback -0.0876373 -4.04818 1.49971
thorax -1.18419 -1.96431 3.65573
lowerneck -12.9246 -0.989392 -7.39286
upperneck 6.72267 -0.489489 4.71621
head 4.69305 -0.283182 2.45397
lclavicle 3.9875e-14 -5.96356e-16 -2.75708e-31
lhumerus -31.9667 -26.1122 94.3516
lradius 76.8602 0 0
lwrist 18.6362 0 0
lhand -24.9438 -9.42215 -1.72924
lfingers 7.12502 0 0
lthumb 1.56335 20.2068 -1.67857
rclavicle 3.9875e-14 -5.96356e-16 -2.75708e-31
rhumerus -49.0148 7.84811 -83.5008
rradius 60.2941 0 0
rwrist -11.5156 0 0
rhand -37.1185 7.2262 -1.97461
rfingers 7.12502 0 0
rthumb -10.1829 -22.3759 -1.92822
